# xmcd
#
# Track frame offsets:
#	150
#	16404
#	20534
#	37729
#	45361
#	63498
#	80307
#	96826
#	110278
#	126049
#	144669
#	163096
#	176983
#	191884
#	205867
#	209607
#
# Disc length: 3080 seconds
#
# Revision: 1
# Processed by: cddbd v1.5.1PL2 Copyright (c) Steve Scherf et al.
# Submitted via: EasyCDDAExtractor 5.0.6
#
DISCID=dd0c0610
DTITLE=Colectânea - The Legend of Jesse james
DYEAR=1900
DGENRE=Country
TTITLE0=Ride of the redlegs
TTITLE1=Quantrill's guerrillas
TTITLE2=Six gun shooting
TTITLE3=Have you heard the news?
TTITLE4=Heaven ain't ready for you yet
TTITLE5=Help him Jesus
TTITLE6=The old Clay County
TTITLE7=Riding with Jesse James
TTITLE8=Hunt them down
TTITLE9=Wish you where back in Missouri
TTITLE10=Northfield - the plan
TTITLE11=Nothfield - the disaster
TTITLE12=High walls
TTITLE13=The death of me
TTITLE14=The plot
TTITLE15=One more shot
EXTD=
EXTT0=
EXTT1=
EXTT2=
EXTT3=
EXTT4=
EXTT5=
EXTT6=
EXTT7=
EXTT8=
EXTT9=
EXTT10=
EXTT11=
EXTT12=
EXTT13=
EXTT14=
EXTT15=
PLAYORDER=
